<svg xmlns="http://www.w3.org/2000/svg" xmlns:xlink="http://www.w3.org/1999/xlink" width="50" zoomAndPan="magnify" viewBox="0 0 375 374.999991" height="500" preserveAspectRatio="xMidYMid meet" version="1.0"><defs><clipPath id="c35967521c"><path d="M 238.441406 166.867188 L 249.777344 166.867188 L 249.777344 182.566406 L 238.441406 182.566406 Z M 238.441406 166.867188 " clip-rule="nonzero"/></clipPath></defs><path fill="#ffff" d="M 77.011719 135.5625 C 79.527344 135.5625 81.984375 135.929688 84.378906 136.65625 C 86.773438 137.386719 88.550781 138.109375 89.71875 138.820312 L 91.40625 139.953125 L 87.132812 148.375 C 86.796875 148.152344 86.328125 147.867188 85.730469 147.511719 C 85.128906 147.152344 84.003906 146.671875 82.355469 146.070312 C 80.707031 145.46875 79.167969 145.167969 77.746094 145.167969 C 75.984375 145.167969 74.632812 145.546875 73.679688 146.300781 C 72.726562 147.046875 72.25 148.058594 72.25 149.328125 C 72.25 149.96875 72.472656 150.5625 72.917969 151.101562 C 73.363281 151.644531 74.128906 152.222656 75.210938 152.839844 C 76.296875 153.460938 77.257812 153.957031 78.082031 154.335938 C 78.90625 154.707031 80.179688 155.269531 81.90625 156.023438 C 84.898438 157.292969 87.453125 159.027344 89.566406 161.222656 C 91.683594 163.410156 92.746094 165.894531 92.746094 168.664062 C 92.746094 171.316406 92.269531 173.640625 91.316406 175.628906 C 90.363281 177.613281 89.050781 179.167969 87.378906 180.289062 C 85.710938 181.417969 83.867188 182.246094 81.839844 182.789062 C 79.824219 183.328125 77.632812 183.601562 75.273438 183.601562 C 73.257812 183.601562 71.273438 183.394531 69.328125 182.980469 C 67.375 182.570312 65.746094 182.054688 64.433594 181.4375 C 63.121094 180.820312 61.941406 180.214844 60.894531 179.621094 C 59.84375 179.023438 59.078125 178.515625 58.589844 178.101562 L 57.855469 177.484375 L 63.148438 168.601562 C 63.589844 168.980469 64.207031 169.460938 64.988281 170.042969 C 65.777344 170.617188 67.171875 171.394531 69.171875 172.371094 C 71.179688 173.34375 72.949219 173.828125 74.488281 173.828125 C 78.945312 173.828125 81.171875 172.316406 81.171875 169.28125 C 81.171875 168.640625 81.011719 168.046875 80.695312 167.507812 C 80.375 166.964844 79.8125 166.425781 79.007812 165.882812 C 78.210938 165.335938 77.503906 164.902344 76.882812 164.582031 C 76.265625 164.269531 75.253906 163.78125 73.84375 163.128906 C 72.4375 162.46875 71.398438 161.96875 70.730469 161.636719 C 67.914062 160.253906 65.738281 158.527344 64.203125 156.445312 C 62.671875 154.359375 61.910156 152.121094 61.910156 149.726562 C 61.910156 145.574219 63.441406 142.175781 66.507812 139.527344 C 69.578125 136.886719 73.078125 135.5625 77.011719 135.5625 Z M 77.011719 135.5625 " fill-opacity="1" fill-rule="nonzero"/><path fill="#ffff" d="M 126.859375 169.734375 L 105.949219 169.734375 C 105.949219 171.75 106.605469 173.25 107.917969 174.226562 C 109.230469 175.199219 110.65625 175.683594 112.195312 175.683594 C 113.796875 175.683594 115.066406 175.46875 116.003906 175.039062 C 116.949219 174.609375 118.015625 173.757812 119.210938 172.476562 L 126.40625 176.082031 C 123.410156 181.09375 118.429688 183.601562 111.460938 183.601562 C 107.113281 183.601562 103.386719 182.117188 100.269531 179.144531 C 97.160156 176.167969 95.609375 172.578125 95.609375 168.382812 C 95.609375 164.183594 97.160156 160.589844 100.269531 157.59375 C 103.386719 154.597656 107.113281 153.097656 111.460938 153.097656 C 116.023438 153.097656 119.742188 154.421875 122.609375 157.066406 C 125.472656 159.699219 126.910156 163.472656 126.910156 168.382812 C 126.910156 169.050781 126.890625 169.5 126.859375 169.734375 Z M 106.230469 164.222656 L 117.1875 164.222656 C 116.964844 162.722656 116.371094 161.570312 115.414062 160.773438 C 114.460938 159.96875 113.238281 159.5625 111.742188 159.5625 C 110.09375 159.5625 108.78125 159.992188 107.804688 160.851562 C 106.832031 161.710938 106.308594 162.832031 106.230469 164.222656 Z M 106.230469 164.222656 " fill-opacity="1" fill-rule="nonzero"/><path fill="#ffff" d="M 131.578125 182.761719 L 131.578125 153.9375 L 141.515625 153.9375 L 141.515625 158.09375 L 141.632812 158.09375 C 141.710938 157.949219 141.828125 157.765625 141.992188 157.539062 C 142.164062 157.308594 142.527344 156.917969 143.085938 156.355469 C 143.652344 155.789062 144.253906 155.285156 144.890625 154.835938 C 145.523438 154.394531 146.347656 153.992188 147.363281 153.640625 C 148.371094 153.277344 149.402344 153.097656 150.453125 153.097656 C 151.539062 153.097656 152.609375 153.25 153.65625 153.550781 C 154.703125 153.851562 155.472656 154.152344 155.960938 154.449219 L 156.746094 154.886719 L 152.589844 163.320312 C 151.351562 162.277344 149.628906 161.75 147.414062 161.75 C 146.21875 161.75 145.1875 162.015625 144.324219 162.535156 C 143.464844 163.0625 142.855469 163.703125 142.496094 164.453125 C 142.140625 165.203125 141.890625 165.839844 141.734375 166.359375 C 141.585938 166.886719 141.515625 167.296875 141.515625 167.597656 L 141.515625 182.761719 Z M 131.578125 182.761719 " fill-opacity="1" fill-rule="nonzero"/><path fill="#ffff" d="M 166.855469 153.9375 L 173.886719 169.617188 L 180.902344 153.9375 L 192.710938 153.9375 L 177.246094 182.761719 L 170.511719 182.761719 L 155.0625 153.9375 Z M 166.855469 153.9375 " fill-opacity="1" fill-rule="nonzero"/><path fill="#ffff" d="M 224.113281 169.734375 L 203.207031 169.734375 C 203.207031 171.75 203.863281 173.25 205.175781 174.226562 C 206.488281 175.199219 207.910156 175.683594 209.449219 175.683594 C 211.054688 175.683594 212.324219 175.46875 213.261719 175.039062 C 214.203125 174.609375 215.273438 173.757812 216.46875 172.476562 L 223.664062 176.082031 C 220.667969 181.09375 215.683594 183.601562 208.714844 183.601562 C 204.371094 183.601562 200.644531 182.117188 197.527344 179.144531 C 194.417969 176.167969 192.867188 172.578125 192.867188 168.382812 C 192.867188 164.183594 194.417969 160.589844 197.527344 157.59375 C 200.644531 154.597656 204.371094 153.097656 208.714844 153.097656 C 213.28125 153.097656 217 154.421875 219.867188 157.066406 C 222.730469 159.699219 224.167969 163.472656 224.167969 168.382812 C 224.167969 169.050781 224.148438 169.5 224.113281 169.734375 Z M 203.488281 164.222656 L 214.445312 164.222656 C 214.21875 162.722656 213.628906 161.570312 212.667969 160.773438 C 211.714844 159.96875 210.492188 159.5625 209 159.5625 C 207.351562 159.5625 206.039062 159.992188 205.058594 160.851562 C 204.085938 161.710938 203.566406 162.832031 203.488281 164.222656 Z M 203.488281 164.222656 " fill-opacity="1" fill-rule="nonzero"/><path fill="#ffff" d="M 228.832031 182.761719 L 228.832031 153.9375 L 238.773438 153.9375 L 238.773438 156.972656 L 238.886719 156.972656 C 241.46875 154.394531 244.226562 153.097656 247.152344 153.097656 C 248.570312 153.097656 249.980469 153.289062 251.390625 153.664062 C 252.796875 154.035156 254.144531 154.613281 255.433594 155.402344 C 256.726562 156.1875 257.777344 157.296875 258.574219 158.738281 C 259.378906 160.179688 259.785156 161.859375 259.785156 163.773438 L 259.785156 182.761719 L 249.84375 182.761719 L 249.84375 166.464844 C 249.84375 164.96875 249.363281 163.664062 248.402344 162.535156 C 247.449219 161.414062 246.203125 160.851562 244.667969 160.851562 C 243.175781 160.851562 241.816406 161.4375 240.601562 162.601562 C 239.378906 163.757812 238.773438 165.046875 238.773438 166.464844 L 238.773438 182.761719 Z M 228.832031 182.761719 " fill-opacity="1" fill-rule="nonzero"/><path fill="#ffff" d="M 290.640625 173.210938 C 292.242188 173.210938 293.808594 172.972656 295.324219 172.488281 C 296.84375 172 297.960938 171.53125 298.671875 171.074219 L 299.742188 170.351562 L 304.234375 179.339844 C 304.082031 179.449219 303.867188 179.601562 303.605469 179.789062 C 303.347656 179.980469 302.742188 180.328125 301.789062 180.832031 C 300.835938 181.332031 299.8125 181.769531 298.726562 182.144531 C 297.632812 182.523438 296.207031 182.855469 294.449219 183.148438 C 292.691406 183.449219 290.875 183.601562 289.003906 183.601562 C 284.695312 183.601562 280.609375 182.542969 276.746094 180.433594 C 272.890625 178.316406 269.785156 175.398438 267.425781 171.691406 C 265.0625 167.984375 263.886719 163.976562 263.886719 159.664062 C 263.886719 156.414062 264.574219 153.289062 265.957031 150.292969 C 267.347656 147.289062 269.191406 144.722656 271.496094 142.59375 C 273.800781 140.457031 276.492188 138.753906 279.566406 137.480469 C 282.636719 136.203125 285.785156 135.5625 289.003906 135.5625 C 291.996094 135.5625 294.757812 135.921875 297.28125 136.632812 C 299.8125 137.347656 301.609375 138.058594 302.664062 138.769531 L 304.234375 139.835938 L 299.742188 148.824219 C 299.476562 148.601562 299.078125 148.332031 298.558594 148.011719 C 298.03125 147.699219 296.980469 147.277344 295.402344 146.75 C 293.832031 146.230469 292.242188 145.964844 290.640625 145.964844 C 288.089844 145.964844 285.800781 146.378906 283.777344 147.203125 C 281.757812 148.027344 280.160156 149.113281 278.976562 150.460938 C 277.796875 151.808594 276.902344 153.261719 276.285156 154.8125 C 275.664062 156.367188 275.355469 157.949219 275.355469 159.5625 C 275.355469 163.082031 276.671875 166.238281 279.308594 169.023438 C 281.953125 171.816406 285.726562 173.210938 290.640625 173.210938 Z M 290.640625 173.210938 " fill-opacity="1" fill-rule="nonzero"/><path fill="#ddb519" d="M 192.539062 186.320312 L 197.019531 197.441406 L 194.300781 197.441406 L 193.480469 195.214844 L 189.242188 195.214844 L 188.417969 197.441406 L 185.703125 197.441406 L 190.183594 186.320312 Z M 192.617188 192.988281 L 191.367188 189.757812 L 191.339844 189.757812 L 190.105469 192.988281 Z M 192.617188 192.988281 " fill-opacity="1" fill-rule="nonzero"/><path fill="#ddb519" d="M 197.917969 196.59375 C 197.273438 195.882812 196.949219 195.015625 196.949219 193.992188 C 196.949219 192.972656 197.273438 192.105469 197.917969 191.390625 C 198.566406 190.679688 199.390625 190.324219 200.386719 190.324219 C 201.304688 190.324219 202.0625 190.613281 202.652344 191.183594 L 202.652344 185.855469 L 205.035156 185.855469 L 205.035156 197.441406 L 202.679688 197.441406 L 202.679688 196.65625 L 202.652344 196.65625 C 202.0625 197.320312 201.304688 197.648438 200.386719 197.648438 C 199.390625 197.648438 198.566406 197.296875 197.917969 196.59375 Z M 199.949219 192.820312 C 199.640625 193.121094 199.488281 193.511719 199.488281 193.992188 C 199.488281 194.464844 199.632812 194.855469 199.925781 195.164062 C 200.222656 195.464844 200.621094 195.613281 201.109375 195.613281 C 201.574219 195.613281 201.953125 195.460938 202.253906 195.152344 C 202.554688 194.84375 202.707031 194.457031 202.707031 193.992188 C 202.707031 193.511719 202.550781 193.121094 202.242188 192.820312 C 201.933594 192.511719 201.554688 192.355469 201.109375 192.355469 C 200.644531 192.355469 200.257812 192.511719 199.949219 192.820312 Z M 199.949219 192.820312 " fill-opacity="1" fill-rule="nonzero"/><path fill="#ddb519" d="M 206.660156 197.441406 L 206.660156 190.527344 L 209.042969 190.527344 L 209.042969 191.25 L 209.066406 191.25 C 209.683594 190.632812 210.34375 190.324219 211.050781 190.324219 C 211.554688 190.324219 212.027344 190.425781 212.464844 190.632812 C 212.902344 190.835938 213.238281 191.160156 213.46875 191.597656 C 214.164062 190.746094 214.929688 190.324219 215.761719 190.324219 C 216.488281 190.324219 217.121094 190.535156 217.65625 190.953125 C 218.1875 191.367188 218.453125 192.007812 218.453125 192.886719 L 218.453125 197.441406 L 216.070312 197.441406 L 216.070312 193.527344 C 216.070312 193.160156 215.96875 192.855469 215.761719 192.613281 C 215.5625 192.367188 215.257812 192.242188 214.847656 192.242188 C 214.503906 192.242188 214.234375 192.351562 214.050781 192.5625 C 213.871094 192.769531 213.769531 193.023438 213.753906 193.324219 L 213.753906 197.441406 L 211.359375 197.441406 L 211.359375 193.527344 C 211.359375 193.160156 211.253906 192.855469 211.050781 192.613281 C 210.851562 192.367188 210.550781 192.242188 210.148438 192.242188 C 209.777344 192.242188 209.5 192.355469 209.3125 192.589844 C 209.132812 192.8125 209.042969 193.085938 209.042969 193.398438 L 209.042969 197.441406 Z M 206.660156 197.441406 " fill-opacity="1" fill-rule="nonzero"/><path fill="#ddb519" d="M 220.15625 186.679688 C 220.4375 186.394531 220.773438 186.253906 221.160156 186.253906 C 221.546875 186.253906 221.875 186.394531 222.148438 186.679688 C 222.433594 186.957031 222.574219 187.285156 222.574219 187.671875 C 222.574219 188.058594 222.433594 188.390625 222.148438 188.675781 C 221.875 188.953125 221.546875 189.085938 221.160156 189.085938 C 220.773438 189.085938 220.4375 188.953125 220.15625 188.675781 C 219.878906 188.390625 219.742188 188.058594 219.742188 187.671875 C 219.742188 187.285156 219.878906 186.957031 220.15625 186.679688 Z M 219.9375 190.527344 L 219.9375 197.441406 L 222.316406 197.441406 L 222.316406 190.527344 Z M 219.9375 190.527344 " fill-opacity="1" fill-rule="nonzero"/><path fill="#ddb519" d="M 224.007812 197.441406 L 224.007812 190.527344 L 226.386719 190.527344 L 226.386719 191.25 L 226.414062 191.25 C 227.03125 190.632812 227.691406 190.324219 228.398438 190.324219 C 228.738281 190.324219 229.078125 190.371094 229.414062 190.464844 C 229.75 190.550781 230.070312 190.691406 230.378906 190.875 C 230.695312 191.066406 230.949219 191.335938 231.140625 191.6875 C 231.335938 192.03125 231.433594 192.429688 231.433594 192.886719 L 231.433594 197.441406 L 229.039062 197.441406 L 229.039062 193.527344 C 229.039062 193.167969 228.925781 192.855469 228.691406 192.589844 C 228.46875 192.324219 228.171875 192.191406 227.804688 192.191406 C 227.445312 192.191406 227.117188 192.332031 226.824219 192.613281 C 226.53125 192.890625 226.386719 193.195312 226.386719 193.527344 L 226.386719 197.441406 Z M 224.007812 197.441406 " fill-opacity="1" fill-rule="nonzero"/><path fill="#ddb519" d="M 233.132812 186.679688 C 233.417969 186.394531 233.753906 186.253906 234.136719 186.253906 C 234.523438 186.253906 234.851562 186.394531 235.128906 186.679688 C 235.414062 186.957031 235.554688 187.285156 235.554688 187.671875 C 235.554688 188.058594 235.414062 188.390625 235.128906 188.675781 C 234.851562 188.953125 234.523438 189.085938 234.136719 189.085938 C 233.753906 189.085938 233.417969 188.953125 233.132812 188.675781 C 232.855469 188.390625 232.722656 188.058594 232.722656 187.671875 C 232.722656 187.285156 232.855469 186.957031 233.132812 186.679688 Z M 232.914062 190.527344 L 232.914062 197.441406 L 235.296875 197.441406 L 235.296875 190.527344 Z M 232.914062 190.527344 " fill-opacity="1" fill-rule="nonzero"/><path fill="#ddb519" d="M 239.984375 190.324219 C 240.378906 190.324219 240.769531 190.371094 241.15625 190.464844 C 241.542969 190.550781 241.828125 190.640625 242.019531 190.734375 L 242.304688 190.863281 L 241.53125 192.433594 C 240.988281 192.144531 240.476562 191.996094 239.984375 191.996094 C 239.71875 191.996094 239.527344 192.027344 239.417969 192.085938 C 239.304688 192.148438 239.25 192.253906 239.25 192.410156 C 239.25 192.453125 239.253906 192.492188 239.265625 192.523438 C 239.269531 192.558594 239.289062 192.59375 239.316406 192.628906 C 239.34375 192.652344 239.359375 192.679688 239.378906 192.703125 C 239.40625 192.730469 239.445312 192.757812 239.496094 192.78125 C 239.554688 192.808594 239.597656 192.832031 239.625 192.847656 C 239.65625 192.855469 239.707031 192.871094 239.78125 192.898438 C 239.855469 192.921875 239.910156 192.945312 239.945312 192.960938 C 239.980469 192.972656 240.039062 192.996094 240.128906 193.027344 C 240.210938 193.050781 240.273438 193.070312 240.320312 193.078125 C 240.605469 193.15625 240.847656 193.246094 241.054688 193.347656 C 241.261719 193.445312 241.472656 193.578125 241.699219 193.746094 C 241.929688 193.921875 242.109375 194.140625 242.238281 194.402344 C 242.367188 194.660156 242.433594 194.953125 242.433594 195.28125 C 242.433594 196.859375 241.335938 197.648438 239.148438 197.648438 C 238.660156 197.648438 238.191406 197.570312 237.746094 197.417969 C 237.296875 197.261719 236.976562 197.109375 236.78125 196.953125 L 236.484375 196.707031 L 237.449219 195.085938 C 237.527344 195.148438 237.621094 195.222656 237.734375 195.304688 C 237.851562 195.390625 238.0625 195.511719 238.363281 195.664062 C 238.671875 195.8125 238.9375 195.882812 239.160156 195.882812 C 239.65625 195.882812 239.910156 195.71875 239.910156 195.382812 C 239.910156 195.226562 239.84375 195.109375 239.714844 195.023438 C 239.59375 194.9375 239.382812 194.84375 239.085938 194.738281 C 238.78125 194.628906 238.546875 194.53125 238.375 194.441406 C 237.9375 194.210938 237.59375 193.953125 237.347656 193.671875 C 237.09375 193.386719 236.972656 193.011719 236.972656 192.550781 C 236.972656 191.847656 237.242188 191.300781 237.785156 190.914062 C 238.324219 190.523438 239.058594 190.324219 239.984375 190.324219 Z M 239.984375 190.324219 " fill-opacity="1" fill-rule="nonzero"/><path fill="#ffff" d="M 244.019531 190.527344 L 244.019531 187.953125 L 246.414062 187.953125 L 246.414062 190.527344 L 247.871094 190.527344 L 247.871094 192.34375 L 246.414062 192.34375 L 246.414062 194.546875 C 246.414062 195.183594 246.589844 195.5 246.941406 195.5 C 247.035156 195.5 247.128906 195.480469 247.226562 195.445312 C 247.328125 195.414062 247.40625 195.378906 247.457031 195.34375 L 247.535156 195.28125 L 248.140625 197.210938 C 247.625 197.5 247.035156 197.648438 246.375 197.648438 C 245.929688 197.648438 245.542969 197.570312 245.21875 197.417969 C 244.898438 197.257812 244.65625 197.039062 244.484375 196.773438 C 244.320312 196.507812 244.199219 196.230469 244.125 195.9375 C 244.050781 195.648438 244.019531 195.332031 244.019531 194.996094 L 244.019531 192.34375 L 243.027344 192.34375 L 243.027344 190.527344 Z M 244.019531 190.527344 " fill-opacity="1" fill-rule="nonzero"/><path fill="#ddb519" d="M 248.949219 197.441406 L 248.949219 190.527344 L 251.332031 190.527344 L 251.332031 191.519531 L 251.359375 191.519531 C 251.375 191.488281 251.402344 191.441406 251.449219 191.390625 C 251.488281 191.339844 251.578125 191.246094 251.707031 191.109375 C 251.839844 190.972656 251.988281 190.851562 252.144531 190.746094 C 252.296875 190.636719 252.492188 190.539062 252.734375 190.453125 C 252.972656 190.367188 253.226562 190.324219 253.480469 190.324219 C 253.738281 190.324219 253.992188 190.359375 254.242188 190.4375 C 254.5 190.507812 254.683594 190.578125 254.796875 190.644531 L 254.988281 190.761719 L 253.984375 192.78125 C 253.691406 192.523438 253.28125 192.394531 252.75 192.394531 C 252.464844 192.394531 252.214844 192.460938 252 192.589844 C 251.796875 192.71875 251.648438 192.871094 251.5625 193.050781 C 251.488281 193.234375 251.425781 193.386719 251.382812 193.515625 C 251.347656 193.636719 251.332031 193.730469 251.332031 193.800781 L 251.332031 197.441406 Z M 248.949219 197.441406 " fill-opacity="1" fill-rule="nonzero"/><path fill="#ddb519" d="M 256.125 196.59375 C 255.480469 195.882812 255.160156 195.015625 255.160156 193.992188 C 255.160156 192.972656 255.480469 192.105469 256.125 191.390625 C 256.777344 190.679688 257.601562 190.324219 258.597656 190.324219 C 259.515625 190.324219 260.273438 190.613281 260.863281 191.183594 L 260.863281 190.527344 L 263.246094 190.527344 L 263.246094 197.441406 L 260.890625 197.441406 L 260.890625 196.65625 L 260.863281 196.65625 C 260.273438 197.320312 259.515625 197.648438 258.597656 197.648438 C 257.601562 197.648438 256.777344 197.296875 256.125 196.59375 Z M 258.160156 192.820312 C 257.851562 193.121094 257.695312 193.511719 257.695312 193.992188 C 257.695312 194.464844 257.839844 194.855469 258.132812 195.164062 C 258.433594 195.464844 258.828125 195.613281 259.320312 195.613281 C 259.78125 195.613281 260.164062 195.460938 260.464844 195.152344 C 260.765625 194.84375 260.914062 194.457031 260.914062 193.992188 C 260.914062 193.511719 260.761719 193.121094 260.453125 192.820312 C 260.144531 192.511719 259.761719 192.355469 259.320312 192.355469 C 258.855469 192.355469 258.46875 192.511719 258.160156 192.820312 Z M 258.160156 192.820312 " fill-opacity="1" fill-rule="nonzero"/><path fill="#ddb519" d="M 265.332031 196.59375 C 264.6875 195.882812 264.367188 195.015625 264.367188 193.992188 C 264.367188 192.972656 264.6875 192.105469 265.332031 191.390625 C 265.980469 190.679688 266.804688 190.324219 267.804688 190.324219 C 268.722656 190.324219 269.476562 190.613281 270.070312 191.183594 L 270.070312 185.855469 L 272.453125 185.855469 L 272.453125 197.441406 L 270.09375 197.441406 L 270.09375 196.65625 L 270.070312 196.65625 C 269.476562 197.320312 268.722656 197.648438 267.804688 197.648438 C 266.804688 197.648438 265.980469 197.296875 265.332031 196.59375 Z M 267.367188 192.820312 C 267.058594 193.121094 266.902344 193.511719 266.902344 193.992188 C 266.902344 194.464844 267.046875 194.855469 267.339844 195.164062 C 267.640625 195.464844 268.035156 195.613281 268.523438 195.613281 C 268.988281 195.613281 269.367188 195.460938 269.671875 195.152344 C 269.96875 194.84375 270.121094 194.457031 270.121094 193.992188 C 270.121094 193.511719 269.964844 193.121094 269.65625 192.820312 C 269.347656 192.511719 268.96875 192.355469 268.523438 192.355469 C 268.0625 192.355469 267.675781 192.511719 267.367188 192.820312 Z M 267.367188 192.820312 " fill-opacity="1" fill-rule="nonzero"/><path fill="#ddb519" d="M 274.71875 196.632812 C 273.953125 195.945312 273.570312 195.066406 273.570312 193.992188 C 273.570312 192.921875 273.972656 192.042969 274.769531 191.351562 C 275.566406 190.667969 276.558594 190.324219 277.742188 190.324219 C 278.902344 190.324219 279.875 190.671875 280.667969 191.367188 C 281.464844 192.054688 281.863281 192.929688 281.863281 193.992188 C 281.863281 195.058594 281.472656 195.933594 280.691406 196.617188 C 279.917969 197.308594 278.933594 197.648438 277.742188 197.648438 C 276.496094 197.648438 275.492188 197.3125 274.71875 196.632812 Z M 276.570312 192.820312 C 276.261719 193.121094 276.109375 193.511719 276.109375 193.992188 C 276.109375 194.464844 276.253906 194.855469 276.546875 195.164062 C 276.84375 195.464844 277.242188 195.613281 277.730469 195.613281 C 278.195312 195.613281 278.574219 195.460938 278.875 195.152344 C 279.175781 194.84375 279.328125 194.457031 279.328125 193.992188 C 279.328125 193.511719 279.171875 193.121094 278.863281 192.820312 C 278.554688 192.511719 278.175781 192.355469 277.730469 192.355469 C 277.265625 192.355469 276.878906 192.511719 276.570312 192.820312 Z M 276.570312 192.820312 " fill-opacity="1" fill-rule="nonzero"/><path fill="#ddb519" d="M 282.984375 197.441406 L 282.984375 190.527344 L 285.367188 190.527344 L 285.367188 191.519531 L 285.390625 191.519531 C 285.40625 191.488281 285.4375 191.441406 285.480469 191.390625 C 285.523438 191.339844 285.609375 191.246094 285.738281 191.109375 C 285.875 190.972656 286.023438 190.851562 286.175781 190.746094 C 286.332031 190.636719 286.527344 190.539062 286.769531 190.453125 C 287.007812 190.367188 287.257812 190.324219 287.515625 190.324219 C 287.773438 190.324219 288.023438 190.359375 288.277344 190.4375 C 288.53125 190.507812 288.714844 190.578125 288.828125 190.644531 L 289.023438 190.761719 L 288.019531 192.78125 C 287.726562 192.523438 287.3125 192.394531 286.78125 192.394531 C 286.5 192.394531 286.246094 192.460938 286.035156 192.589844 C 285.828125 192.71875 285.679688 192.871094 285.597656 193.050781 C 285.519531 193.234375 285.460938 193.386719 285.417969 193.515625 C 285.382812 193.636719 285.367188 193.730469 285.367188 193.800781 L 285.367188 197.441406 Z M 282.984375 197.441406 " fill-opacity="1" fill-rule="nonzero"/><path fill="#ddb519" d="M 290.160156 196.59375 C 289.515625 195.882812 289.195312 195.015625 289.195312 193.992188 C 289.195312 192.972656 289.515625 192.105469 290.160156 191.390625 C 290.808594 190.679688 291.632812 190.324219 292.632812 190.324219 C 293.550781 190.324219 294.304688 190.613281 294.898438 191.183594 L 294.898438 190.527344 L 297.28125 190.527344 L 297.28125 197.441406 L 294.921875 197.441406 L 294.921875 196.65625 L 294.898438 196.65625 C 294.304688 197.320312 293.550781 197.648438 292.632812 197.648438 C 291.632812 197.648438 290.808594 197.296875 290.160156 196.59375 Z M 292.195312 192.820312 C 291.886719 193.121094 291.730469 193.511719 291.730469 193.992188 C 291.730469 194.464844 291.875 194.855469 292.167969 195.164062 C 292.46875 195.464844 292.863281 195.613281 293.351562 195.613281 C 293.816406 195.613281 294.195312 195.460938 294.5 195.152344 C 294.796875 194.84375 294.949219 194.457031 294.949219 193.992188 C 294.949219 193.511719 294.792969 193.121094 294.484375 192.820312 C 294.175781 192.511719 293.796875 192.355469 293.351562 192.355469 C 292.890625 192.355469 292.503906 192.511719 292.195312 192.820312 Z M 292.195312 192.820312 " fill-opacity="1" fill-rule="nonzero"/><g clip-path="url(#c35967521c)"><path fill="#ddb519" d="M 256.859375 159.386719 L 256.515625 159.386719 L 256.515625 152.75 C 256.515625 145.847656 250.898438 140.226562 243.992188 140.226562 C 237.085938 140.226562 231.46875 145.847656 231.46875 152.75 L 231.46875 159.386719 L 231.128906 159.386719 C 227.96875 159.386719 225.402344 161.953125 225.402344 165.109375 L 225.402344 183.800781 C 225.402344 186.957031 227.96875 189.523438 231.128906 189.523438 L 256.859375 189.523438 C 260.015625 189.523438 262.582031 186.957031 262.582031 183.800781 L 262.582031 165.109375 C 262.585938 161.953125 260.015625 159.386719 256.859375 159.386719 Z M 232.574219 152.75 C 232.574219 146.457031 237.695312 141.332031 243.992188 141.332031 C 250.292969 141.332031 255.414062 146.457031 255.414062 152.75 L 255.414062 159.386719 L 251.195312 159.386719 L 251.195312 152.808594 C 251.195312 148.835938 247.964844 145.605469 243.992188 145.605469 C 240.019531 145.605469 236.789062 148.835938 236.789062 152.808594 L 236.789062 159.386719 L 232.574219 159.386719 Z M 250.09375 159.386719 L 237.894531 159.386719 L 237.894531 152.808594 C 237.894531 149.445312 240.628906 146.707031 243.992188 146.707031 C 247.355469 146.707031 250.09375 149.445312 250.09375 152.808594 Z M 261.480469 183.796875 C 261.480469 186.34375 259.40625 188.417969 256.859375 188.417969 L 231.128906 188.417969 C 228.578125 188.417969 226.503906 186.34375 226.503906 183.796875 L 226.503906 165.109375 C 226.503906 162.566406 228.578125 160.488281 231.128906 160.488281 L 256.859375 160.488281 C 259.402344 160.488281 261.480469 162.566406 261.480469 165.109375 Z M 261.480469 183.796875 " fill-opacity="1" fill-rule="nonzero"/></g><path fill="#ddb519" d="M 247.269531 175.78125 C 248.265625 174.65625 248.613281 173.101562 248.195312 171.617188 C 247.765625 170.085938 246.578125 168.96875 245.019531 168.613281 C 243.683594 168.3125 242.316406 168.617188 241.265625 169.449219 C 240.21875 170.285156 239.613281 171.535156 239.613281 172.875 C 239.613281 174.171875 240.179688 175.390625 241.171875 176.230469 C 241.375 176.398438 241.445312 176.648438 241.359375 176.855469 L 240.253906 179.46875 C 240.066406 179.910156 240.109375 180.417969 240.378906 180.820312 C 240.640625 181.21875 241.089844 181.457031 241.570312 181.457031 L 246.417969 181.457031 C 246.898438 181.457031 247.347656 181.222656 247.609375 180.820312 C 247.878906 180.417969 247.921875 179.910156 247.734375 179.46875 L 246.640625 176.886719 C 246.546875 176.65625 246.617188 176.390625 246.832031 176.210938 C 246.984375 176.078125 247.132812 175.933594 247.269531 175.78125 Z M 245.625 177.316406 L 246.71875 179.898438 C 246.78125 180.046875 246.71875 180.164062 246.691406 180.207031 C 246.660156 180.25 246.578125 180.351562 246.417969 180.351562 L 241.570312 180.351562 C 241.410156 180.351562 241.328125 180.25 241.296875 180.207031 C 241.269531 180.164062 241.207031 180.046875 241.269531 179.902344 L 242.375 177.289062 C 242.652344 176.632812 242.457031 175.867188 241.886719 175.386719 C 241.144531 174.757812 240.71875 173.84375 240.71875 172.875 C 240.71875 171.875 241.167969 170.941406 241.953125 170.3125 C 242.539062 169.847656 243.257812 169.605469 244.003906 169.605469 C 244.257812 169.605469 244.515625 169.628906 244.773438 169.691406 C 245.933594 169.957031 246.816406 170.785156 247.132812 171.914062 C 247.453125 173.050781 247.203125 174.195312 246.445312 175.050781 C 246.34375 175.164062 246.234375 175.269531 246.117188 175.371094 C 245.539062 175.863281 245.339844 176.644531 245.625 177.316406 Z M 245.625 177.316406 " fill-opacity="1" fill-rule="nonzero"/></svg>